<svg width="965" height="1386" viewBox="0 0 965 1386" fill="none" xmlns="http://www.w3.org/2000/svg">
<path d="M166 1111L400 535H182V662H55V413H549V543L324 1111H166Z" fill="black"/>
<path d="M799 428L565 1004H783V877H910V1126H783V1004H565L565 1126H416V996L641 428H799Z" fill="black"/>
<path d="M841 828.8C817 828.8 799.133 822.933 787.4 811.2C776.2 798.933 770.6 783.467 770.6 764.8V748.8C770.6 730.133 776.2 714.933 787.4 703.2C799.133 690.933 817 684.8 841 684.8C865 684.8 882.6 690.933 893.8 703.2C905.533 714.933 911.4 730.133 911.4 748.8V764.8C911.4 783.467 905.533 798.933 893.8 811.2C882.6 822.933 865 828.8 841 828.8Z" fill="black"/>
<rect x="556" y="923" width="270" height="84" fill="black"/>
<path d="M166 1111L400 535H182V662H55V413H549V543L324 1111H166Z" fill="black"/>
<path d="M799 428L565 1004H783V877H910V1126H783V1004H565L565 1126H416V996L641 428H799Z" fill="black"/>
<path d="M841 828.8C817 828.8 799.133 822.933 787.4 811.2C776.2 798.933 770.6 783.467 770.6 764.8V748.8C770.6 730.133 776.2 714.933 787.4 703.2C799.133 690.933 817 684.8 841 684.8C865 684.8 882.6 690.933 893.8 703.2C905.533 714.933 911.4 730.133 911.4 748.8V764.8C911.4 783.467 905.533 798.933 893.8 811.2C882.6 822.933 865 828.8 841 828.8Z" fill="black"/>
<rect x="556" y="903" width="270" height="104" fill="black"/>
</svg>
